<svg width="40" height="40" viewBox="0 0 40 40" fill="none" xmlns="http://www.w3.org/2000/svg">
<path d="M17.1429 37.8571H22.8572" stroke="black" stroke-width="1.71429" stroke-linecap="round" stroke-linejoin="round"/>
<path d="M31.4286 16.4286C31.4286 13.3975 30.2245 10.4906 28.0812 8.34735C25.9379 6.20408 23.031 5 20 5C16.9689 5 14.062 6.20408 11.9188 8.34735C9.7755 10.4906 8.57142 13.3975 8.57142 16.4286V26.4286C8.57142 27.5652 8.11989 28.6553 7.31616 29.459C6.51244 30.2628 5.42235 30.7143 4.28571 30.7143H35.7143C34.5776 30.7143 33.4875 30.2628 32.6838 29.459C31.8801 28.6553 31.4286 27.5652 31.4286 26.4286V16.4286Z" stroke="black" stroke-width="1.71429" stroke-linecap="round" stroke-linejoin="round"/>
<path d="M1.42859 16.0571C1.43013 13.3375 2.07869 10.6573 3.32069 8.23792C4.5627 5.8185 6.3625 3.72928 8.57145 2.14285" stroke="black" stroke-width="1.71429" stroke-linecap="round" stroke-linejoin="round"/>
<path d="M38.5714 16.0571C38.5699 13.3375 37.9213 10.6573 36.6793 8.23792C35.4373 5.8185 33.6375 3.72928 31.4286 2.14285" stroke="black" stroke-width="1.71429" stroke-linecap="round" stroke-linejoin="round"/>
</svg>
