<svg width="40" height="40" viewBox="0 0 40 40" fill="none" xmlns="http://www.w3.org/2000/svg">
<g clip-path="url(#clip0_6_2)">
<path d="M28.7143 20C28.714 21.6891 28.2147 23.3405 27.2791 24.7469C26.3434 26.1532 25.013 27.2516 23.4551 27.9044C21.8972 28.5571 20.1812 28.735 18.5225 28.4157C16.8638 28.0964 15.3365 27.2941 14.1322 26.1096C12.928 24.9251 12.1006 23.4112 11.7539 21.7581C11.4072 20.1049 11.5567 18.3861 12.1836 16.8176C12.8105 15.2491 13.8869 13.9008 15.2775 12.942C16.6682 11.9833 18.3111 11.4567 20 11.4286C21.1376 11.4096 22.2675 11.6173 23.324 12.0396C24.3805 12.4618 25.3423 13.0902 26.1535 13.888C26.9646 14.6858 27.6088 15.6372 28.0484 16.6865C28.4881 17.7359 28.7144 18.8623 28.7143 20Z" stroke="black" stroke-width="1.71429" stroke-linecap="round" stroke-linejoin="round"/>
<path d="M28.7143 20V23.7143C28.7143 33.6857 44.3428 24.2857 36.1428 10.7429C34.4917 7.92299 32.1351 5.58139 29.3047 3.94829C26.4743 2.3152 23.2676 1.44683 20 1.42857C17.2547 1.43705 14.5455 2.05404 12.0673 3.23514C9.58913 4.41623 7.40361 6.13205 5.66806 8.25909C3.93252 10.3861 2.69012 12.8715 2.0303 15.5363C1.37048 18.201 1.30964 20.979 1.85217 23.6701C2.3947 26.3612 3.5271 28.8985 5.16786 31.0995C6.80862 33.3005 8.91693 35.1104 11.341 36.3988C13.7651 37.6873 16.4448 38.4223 19.187 38.5509C21.9292 38.6796 24.6659 38.1987 27.2 37.1429" stroke="black" stroke-width="1.71429" stroke-linecap="round" stroke-linejoin="round"/>
</g>
<defs>
<clipPath id="clip0_6_2">
<rect width="40" height="40" fill="white"/>
</clipPath>
</defs>
</svg>
