<?xml version="1.0" standalone="no"?>
<!DOCTYPE svg PUBLIC "-//W3C//DTD SVG 20010904//EN"
 "http://www.w3.org/TR/2001/REC-SVG-20010904/DTD/svg10.dtd">
<svg version="1.0" xmlns="http://www.w3.org/2000/svg"
 width="1273.000000pt" height="426.000000pt" viewBox="0 0 1273.000000 426.000000"
 preserveAspectRatio="xMidYMid meet">

<g transform="translate(0.000000,426.000000) scale(0.100000,-0.100000)"
fill="#000000" stroke="none">
<path d="M2 2613 l3 -1647 38 -8 c21 -4 48 -19 61 -35 28 -32 72 -35 111 -7
94 66 114 74 169 68 48 -6 53 -4 69 20 10 14 24 26 33 26 41 0 94 42 139 111
43 67 47 70 73 63 40 -13 125 -9 161 6 31 12 33 11 59 -19 22 -26 44 -36 116
-55 56 -15 95 -31 105 -44 9 -11 32 -28 51 -37 19 -10 44 -25 55 -35 11 -9 42
-20 69 -24 56 -7 128 -40 200 -91 67 -49 99 -47 127 6 17 33 24 40 42 35 12
-3 49 1 82 8 33 8 87 17 120 21 80 9 283 69 367 107 74 34 100 37 168 18 25
-7 101 -13 170 -13 101 -1 132 2 159 16 58 29 157 18 172 -19 8 -23 12 -24
123 -24 123 0 209 15 321 55 91 32 141 32 185 0 28 -21 45 -25 100 -25 97 0
127 -13 140 -60 10 -38 25 -50 60 -50 11 0 22 -10 25 -22 17 -55 100 -112 188
-128 71 -14 283 2 325 24 28 15 65 53 87 90 9 16 20 17 120 7 75 -7 113 -14
120 -24 7 -10 16 -12 26 -7 8 5 47 13 88 18 40 6 74 12 74 14 18 38 28 43 78
49 30 3 68 13 86 22 27 14 66 16 275 15 237 -2 245 -1 275 20 17 12 37 22 45
22 22 -1 48 -26 48 -48 0 -28 22 -38 98 -45 40 -5 73 -14 91 -28 27 -20 33
-20 122 -9 75 9 99 16 119 34 14 13 43 29 64 36 34 11 40 10 48 -4 5 -9 14
-14 19 -10 18 11 57 -5 64 -26 4 -12 19 -22 39 -26 43 -7 418 13 466 26 23 6
48 24 69 50 17 22 37 40 44 40 7 0 25 -14 41 -30 24 -27 31 -29 46 -18 9 7 37
28 60 46 42 31 47 32 104 26 34 -3 92 -17 129 -30 38 -13 76 -24 86 -24 10 0
55 -28 102 -63 81 -60 90 -73 104 -139 4 -22 14 -30 46 -38 29 -8 46 -20 60
-44 25 -43 76 -62 194 -72 249 -21 331 -2 458 106 35 30 75 54 100 60 65 17
95 31 101 46 9 24 73 46 96 34 30 -16 57 -12 77 13 10 13 37 36 61 52 30 20
45 39 53 65 17 58 47 66 112 33 46 -24 66 -28 168 -31 113 -4 119 -3 164 24
37 21 62 28 114 29 36 2 83 10 103 19 53 23 73 20 135 -15 45 -26 68 -32 122
-34 36 -1 88 -10 114 -19 26 -9 57 -16 69 -16 12 0 42 -13 67 -29 34 -21 67
-32 124 -39 61 -8 101 -22 184 -62 97 -47 111 -52 152 -46 25 4 78 10 116 14
41 5 87 17 110 30 22 12 45 22 51 22 6 0 23 10 38 21 23 18 36 20 73 15 36 -5
48 -3 58 11 12 15 15 15 45 -10 53 -45 87 -59 126 -51 19 3 41 15 47 25 11 18
12 18 34 -3 21 -19 29 -20 135 -14 62 4 142 8 177 9 58 2 65 5 90 35 15 17 36
32 47 32 10 0 48 -14 83 -30 l64 -31 27 26 c31 30 44 31 62 6 20 -28 81 -61
114 -63 16 0 112 9 214 20 162 19 187 24 199 42 7 11 22 20 31 20 10 0 32 11
48 25 l30 25 25 -20 c14 -11 28 -34 32 -50 10 -43 61 -83 98 -76 16 3 36 6 43
6 12 0 14 260 14 1675 l0 1675 -6365 0 -6365 0 2 -1647z"/>
</g>
</svg>
