<?xml version="1.0" standalone="no"?>
<!DOCTYPE svg PUBLIC "-//W3C//DTD SVG 20010904//EN"
 "http://www.w3.org/TR/2001/REC-SVG-20010904/DTD/svg10.dtd">
<svg version="1.0" xmlns="http://www.w3.org/2000/svg"
 width="1280.000000pt" height="720.000000pt" viewBox="0 0 1280.000000 720.000000"
 preserveAspectRatio="xMidYMid meet">

<g transform="translate(0.000000,720.000000) scale(0.100000,-0.100000)"
fill="#000000" stroke="none">
<path d="M4465 5570 c-110 -9 -163 -29 -192 -75 -26 -39 -57 -50 -170 -61 -80
-7 -90 -15 -147 -101 -24 -37 -42 -51 -80 -66 -46 -17 -56 -17 -192 -2 -192
21 -296 10 -334 -35 -23 -27 -33 -31 -115 -40 -49 -5 -126 -10 -169 -10 -44 0
-105 -5 -135 -11 -55 -11 -57 -11 -113 23 -76 47 -121 51 -346 37 -226 -13
-291 -8 -374 31 -71 34 -108 37 -193 15 l-59 -16 -33 37 c-25 26 -38 34 -51
28 -9 -4 -82 -11 -162 -16 -164 -10 -152 -10 -203 -2 -36 6 -41 3 -69 -30 -16
-20 -36 -36 -43 -36 -8 0 -31 12 -52 26 -35 23 -44 25 -103 20 -62 -6 -69 -4
-148 34 -93 44 -104 47 -122 25 -7 -8 -25 -15 -40 -15 -15 0 -53 -14 -84 -30
-55 -30 -57 -30 -128 -19 -89 14 -140 6 -198 -30 -25 -16 -79 -47 -120 -70
-85 -48 -130 -77 -177 -116 -18 -15 -51 -29 -73 -32 l-40 -6 2 -1735 3 -1736
38 -8 c21 -4 48 -19 61 -35 28 -32 72 -35 111 -7 94 66 114 74 169 68 48 -6
53 -4 69 20 10 14 24 26 33 26 40 0 92 41 138 110 44 67 49 71 74 64 40 -13
125 -9 161 6 31 12 33 11 59 -19 22 -26 44 -36 116 -55 56 -15 95 -31 105 -44
9 -11 32 -28 51 -37 19 -10 44 -25 55 -35 11 -9 42 -20 69 -24 56 -7 128 -40
200 -91 67 -49 99 -47 127 6 17 33 24 40 42 35 12 -3 49 1 82 8 33 8 87 17
120 21 80 9 283 69 367 107 74 34 100 37 168 18 25 -7 101 -13 170 -13 101 -1
132 2 159 16 58 29 157 18 172 -19 8 -23 12 -24 123 -24 123 0 209 15 321 55
91 32 141 32 185 0 28 -21 45 -25 100 -25 97 0 127 -13 140 -60 10 -38 25 -50
60 -50 11 0 22 -10 25 -22 17 -55 100 -112 188 -128 71 -14 283 2 325 24 28
15 65 53 87 90 9 16 20 17 120 7 75 -7 113 -14 120 -24 7 -10 16 -12 26 -7 8
5 47 13 88 18 40 6 74 12 74 14 18 38 28 43 78 49 30 3 68 13 86 22 27 14 66
16 275 15 237 -2 245 -1 275 20 17 12 37 22 45 22 22 -1 48 -26 48 -48 0 -28
22 -38 98 -45 40 -5 73 -14 91 -28 27 -20 33 -20 122 -9 75 9 99 16 119 34 14
13 43 29 64 36 34 11 40 10 48 -4 5 -9 14 -14 19 -10 18 11 57 -5 64 -26 4
-12 19 -22 39 -26 43 -7 418 13 466 26 23 6 48 24 69 50 17 22 37 40 44 40 7
0 25 -14 41 -30 24 -27 31 -29 46 -18 9 7 37 28 60 46 42 31 47 32 104 26 34
-3 92 -17 129 -30 38 -13 76 -24 86 -24 10 0 55 -28 102 -63 81 -60 90 -73
104 -139 4 -22 14 -30 46 -38 29 -8 46 -20 60 -44 25 -43 76 -62 194 -72 249
-21 331 -2 458 106 35 30 75 54 100 60 65 17 95 31 101 46 9 24 73 46 96 34
30 -16 57 -12 77 13 10 13 37 36 61 52 30 20 45 39 53 65 17 58 47 66 112 33
46 -24 66 -28 168 -31 113 -4 119 -3 164 24 37 21 62 28 114 29 36 2 83 10
103 19 52 22 69 20 139 -16 47 -25 74 -32 122 -33 34 -1 84 -9 110 -19 26 -9
57 -16 69 -16 12 0 42 -13 67 -29 34 -21 67 -32 124 -39 61 -8 101 -22 184
-62 97 -47 111 -52 152 -46 25 4 78 10 116 14 41 5 87 17 110 30 22 12 45 22
51 22 6 0 23 10 38 21 23 18 36 20 73 15 36 -5 48 -3 58 11 12 15 15 15 45
-10 53 -45 87 -59 126 -51 19 3 40 14 46 24 11 17 13 17 39 -2 25 -19 36 -20
136 -14 59 4 137 8 172 9 58 2 65 5 90 35 15 17 36 32 47 32 10 0 48 -14 83
-30 l64 -31 27 26 c31 30 44 31 62 6 20 -28 81 -61 114 -63 16 0 112 9 214 20
162 19 187 24 199 42 7 11 22 20 31 20 10 0 32 11 48 25 l30 25 25 -20 c14
-11 28 -34 32 -50 4 -16 20 -41 37 -55 27 -22 37 -25 72 -19 22 3 56 12 76 19
l35 12 3 1724 c1 1189 -1 1746 -9 1794 -5 39 -13 91 -16 117 l-6 48 -104 55
c-57 30 -122 58 -144 61 -52 9 -121 -18 -156 -60 -36 -42 -147 -98 -193 -98
-19 1 -66 6 -105 13 -92 15 -163 12 -200 -10 -16 -9 -48 -44 -71 -76 -22 -33
-48 -61 -57 -63 -9 -2 -31 6 -47 18 -19 14 -60 27 -106 34 -58 9 -78 16 -86
31 -6 11 -23 32 -38 46 -19 17 -29 40 -34 73 -5 31 -13 49 -24 52 -9 3 -35 14
-57 24 -22 10 -57 23 -77 30 -21 6 -40 16 -44 21 -13 21 -88 69 -108 69 -11 0
-52 -10 -91 -21 -58 -18 -76 -28 -95 -56 -37 -54 -144 -143 -172 -143 -13 0
-48 12 -78 27 l-54 27 -185 -17 c-176 -16 -187 -19 -208 -43 -13 -14 -26 -37
-29 -52 -16 -67 -50 -78 -175 -56 -84 15 -105 15 -160 4 -137 -28 -352 -3
-383 45 -9 13 -16 31 -16 39 0 31 -34 35 -186 26 -82 -6 -161 -15 -176 -21
-15 -6 -39 -26 -53 -44 -45 -60 -128 -70 -167 -20 -11 15 -34 26 -61 30 -118
19 -150 34 -209 92 l-57 56 -90 -6 c-50 -4 -123 -14 -162 -23 -89 -20 -152
-13 -230 27 -34 17 -74 29 -96 29 -32 0 -41 -6 -60 -34 -46 -71 -185 -103
-335 -77 -103 18 -247 -19 -273 -68 -7 -15 -32 -40 -54 -55 -22 -16 -43 -37
-46 -47 -10 -32 -58 -49 -132 -48 -94 2 -126 10 -129 34 -4 27 -35 47 -59 39
-11 -3 -58 -10 -105 -14 -47 -4 -96 -12 -107 -19 -31 -16 -58 -14 -77 8 -10
10 -38 24 -63 30 -48 13 -118 45 -143 66 -21 18 -111 65 -124 65 -6 0 -29 10
-51 23 -36 20 -54 22 -165 22 l-125 -1 -57 -38 c-33 -22 -59 -47 -62 -61 -3
-13 -20 -33 -36 -45 -28 -20 -36 -21 -93 -11 -46 8 -67 17 -82 36 -12 14 -29
25 -38 25 -10 0 -34 7 -55 16 -42 19 -83 19 -163 -2 -76 -19 -84 -18 -111 10
-13 14 -52 39 -88 57 -36 17 -85 45 -110 62 -52 35 -130 111 -130 126 0 11
-98 61 -118 61 -6 0 -18 13 -27 30 -8 16 -23 34 -33 39 -25 13 -163 19 -267
11z"/>
</g>
</svg>
