<svg width="40" height="40" viewBox="0 0 40 40" fill="none" xmlns="http://www.w3.org/2000/svg">
<path d="M7.85716 26.4286C11.4076 26.4286 14.2857 23.5504 14.2857 20C14.2857 16.4496 11.4076 13.5714 7.85716 13.5714C4.30676 13.5714 1.42859 16.4496 1.42859 20C1.42859 23.5504 4.30676 26.4286 7.85716 26.4286Z" stroke="black" stroke-width="1.71429" stroke-linecap="round" stroke-linejoin="round"/>
<path d="M32.1429 38.5714C35.6933 38.5714 38.5714 35.6932 38.5714 32.1428C38.5714 28.5924 35.6933 25.7143 32.1429 25.7143C28.5925 25.7143 25.7143 28.5924 25.7143 32.1428C25.7143 35.6932 28.5925 38.5714 32.1429 38.5714Z" stroke="black" stroke-width="1.71429" stroke-linecap="round" stroke-linejoin="round"/>
<path d="M32.1429 14.2857C35.6933 14.2857 38.5714 11.4075 38.5714 7.85713C38.5714 4.30673 35.6933 1.42856 32.1429 1.42856C28.5925 1.42856 25.7143 4.30673 25.7143 7.85713C25.7143 11.4075 28.5925 14.2857 32.1429 14.2857Z" stroke="black" stroke-width="1.71429" stroke-linecap="round" stroke-linejoin="round"/>
<path d="M13.6 17.1428L26.4 10.7143" stroke="black" stroke-width="1.71429" stroke-linecap="round" stroke-linejoin="round"/>
<path d="M13.6 22.8571L26.4 29.2857" stroke="black" stroke-width="1.71429" stroke-linecap="round" stroke-linejoin="round"/>
</svg>
