<svg width="30" height="30" viewBox="0 0 30 30" fill="none" xmlns="http://www.w3.org/2000/svg">
<g clip-path="url(#clip0_4_59)">
<path d="M28.9285 1.07143H23.5714L21.7071 19.6071C21.6296 20.1181 21.3701 20.5839 20.9763 20.9186C20.5825 21.2533 20.081 21.4344 19.5643 21.4286H6.06426C5.59698 21.453 5.13455 21.3237 4.74762 21.0606C4.36068 20.7975 4.0705 20.415 3.92141 19.9714L1.07141 11.4C0.965146 11.0777 0.936932 10.7349 0.989088 10.3996C1.04124 10.0643 1.17228 9.74618 1.37141 9.47143C1.57885 9.17931 1.85623 8.94387 2.17817 8.78664C2.50011 8.62942 2.85634 8.55542 3.21426 8.57143H22.8214" stroke="black" stroke-width="1.71429" stroke-linecap="round" stroke-linejoin="round"/>
<path d="M6.42855 28.9286C7.02028 28.9286 7.49997 28.4489 7.49997 27.8571C7.49997 27.2654 7.02028 26.7857 6.42855 26.7857C5.83681 26.7857 5.35712 27.2654 5.35712 27.8571C5.35712 28.4489 5.83681 28.9286 6.42855 28.9286Z" stroke="black" stroke-width="1.71429" stroke-linecap="round" stroke-linejoin="round"/>
<path d="M20.3571 28.9286C20.9489 28.9286 21.4286 28.4489 21.4286 27.8571C21.4286 27.2654 20.9489 26.7857 20.3571 26.7857C19.7654 26.7857 19.2857 27.2654 19.2857 27.8571C19.2857 28.4489 19.7654 28.9286 20.3571 28.9286Z" stroke="black" stroke-width="1.71429" stroke-linecap="round" stroke-linejoin="round"/>
</g>
<defs>
<clipPath id="clip0_4_59">
<rect width="30" height="30" fill="white"/>
</clipPath>
</defs>
</svg>
